<?xml version="1.0" ?><svg viewBox="0 0 512 512" xmlns="http://www.w3.org/2000/svg"><g data-name="Capa 17" id="Capa_17"><path d="M260.67,430c-2.64,0-5.23-.06-7.69-.17a174,174,0,0,1,0-347.66c2.45-.11,5-.17,7.68-.17,3.6,0,7.16.11,10.59.32a174,174,0,0,1,0,347.36C267.84,429.89,264.27,430,260.67,430Zm0-336c-2.47,0-4.87,0-7.15.15a162,162,0,0,0,0,323.7c2.29.1,4.69.15,7.16.15,3.36,0,6.67-.1,9.85-.3a162,162,0,0,0,0-323.4C267.33,94.1,264,94,260.67,94Z"/><path d="M253.25,429.84H253a174,174,0,0,1,0-347.66,5.89,5.89,0,0,1,3,.64c2.49,1.26,5.07,2.64,7.66,4.11l.79.44.73.42.09,0A195,195,0,0,1,342.9,171.3a194.6,194.6,0,0,1,0,169.4,195,195,0,0,1-77.67,83.47l-.09.05-.73.42-.82.46c-2.56,1.45-5.14,2.83-7.63,4.09A6,6,0,0,1,253.25,429.84Zm9-10.86h0ZM251.94,94.23a162,162,0,0,0,0,323.54c1.89-1,3.83-2,5.78-3.13l.72-.41.82-.47a183.21,183.21,0,0,0,72.84-78.3,181.92,181.92,0,0,0-32-205,182.46,182.46,0,0,0-40.89-32.26l-.82-.47-.69-.39Q254.78,95.7,251.94,94.23Z"/><path d="M270.89,429.69a6,6,0,0,1-2.73-.66c-3.1-1.59-6.11-3.22-8.94-4.85l-1.12-.66-.47-.28a194.75,194.75,0,0,1-76.71-83.84,194,194,0,0,1,34.66-217.17,194.75,194.75,0,0,1,42-33.46l.48-.29c.37-.22.74-.44,1.12-.65,2.84-1.65,5.85-3.28,8.94-4.86a6,6,0,0,1,3.09-.65,174,174,0,0,1,0,347.36Zm1.27-335.28c-2.39,1.25-4.72,2.52-6.94,3.81l-1,.59-.49.29a183,183,0,0,0-71.95,78.66,182,182,0,0,0,32.52,203.75,183.32,183.32,0,0,0,39.44,31.4l.48.28,1,.6c2.21,1.27,4.54,2.55,6.94,3.8a162,162,0,0,0,0-323.18Z"/><path d="M260.67,198.48a172.24,172.24,0,0,1-77-17.92,174,174,0,0,1-49.12-36.18,6,6,0,0,1,0-8.27A173,173,0,0,1,253,82.17c2.45-.11,5-.17,7.68-.17,3.6,0,7.16.11,10.59.32A173.32,173.32,0,0,1,386.77,136.1a6,6,0,0,1,0,8.27,174,174,0,0,1-46.52,34.88A172.13,172.13,0,0,1,260.67,198.48ZM147.33,140.24A161.45,161.45,0,0,0,189,169.8a162.32,162.32,0,0,0,145.75-1.21A161.88,161.88,0,0,0,374,140.24,161.27,161.27,0,0,0,270.53,94.3c-3.2-.2-6.51-.3-9.86-.3-2.47,0-4.87,0-7.15.15A161.07,161.07,0,0,0,147.33,140.24Z"/><path d="M260.67,430c-2.64,0-5.23-.06-7.69-.17a173,173,0,0,1-118.42-53.94,6,6,0,0,1,0-8.27,173.66,173.66,0,0,1,126.11-54.1,172.13,172.13,0,0,1,79.58,19.23,174,174,0,0,1,46.52,34.88,6,6,0,0,1,0,8.27,173.35,173.35,0,0,1-115.52,53.78C267.84,429.89,264.27,430,260.67,430ZM147.33,371.76a161.06,161.06,0,0,0,106.18,46.09c2.29.1,4.69.15,7.16.15,3.36,0,6.67-.1,9.85-.3A161.29,161.29,0,0,0,374,371.76a161.9,161.9,0,0,0-226.67,0Z"/><path d="M428.67,262h-336a6,6,0,0,1,0-12h336a6,6,0,1,1,0,12Z"/><path d="M260.67,430a6,6,0,0,1-6-6V88a6,6,0,1,1,12,0V424A6,6,0,0,1,260.67,430Z"/></g></svg>